<?xml version="1.0" encoding="UTF-8" standalone="no"?>
<!-- Created with Inkscape (http://www.inkscape.org/) -->

<svg
   version="1.1"
   id="svg2"
   xml:space="preserve"
   width="1600"
   height="1333.3333"
   viewBox="0 0 1600 1333.3333"
   sodipodi:docname="AGREAT FINAL ICON-02.ai"
   xmlns:inkscape="http://www.inkscape.org/namespaces/inkscape"
   xmlns:sodipodi="http://sodipodi.sourceforge.net/DTD/sodipodi-0.dtd"
   xmlns="http://www.w3.org/2000/svg"
   xmlns:svg="http://www.w3.org/2000/svg"><defs
     id="defs6"><clipPath
       clipPathUnits="userSpaceOnUse"
       id="clipPath16"><path
         d="M 0,1000 H 1200 V 0 H 0 Z"
         id="path14" /></clipPath></defs><sodipodi:namedview
     id="namedview4"
     pagecolor="#ffffff"
     bordercolor="#666666"
     borderopacity="1.0"
     inkscape:pageshadow="2"
     inkscape:pageopacity="0.0"
     inkscape:pagecheckerboard="0" /><g
     id="g8"
     inkscape:groupmode="layer"
     inkscape:label="AGREAT FINAL ICON-02"
     transform="matrix(1.3333333,0,0,-1.3333333,0,1333.3333)"><g
       id="g10"><g
         id="g12"
         clip-path="url(#clipPath16)"><g
           id="g18"
           transform="translate(469.9199,533.0889)"><path
             d="M 0,0 50.597,96.422 70.014,59.644 c 13.703,11.002 27.749,21.934 42.214,32.734 l -35.3,66.083 c -2.932,5.691 -6.323,10.188 -10.174,13.487 -3.856,3.293 -8.576,4.948 -14.16,4.948 -5.583,0 -10.372,-1.655 -14.363,-4.948 -3.986,-3.299 -7.447,-7.796 -10.369,-13.487 L -121.349,-121.531 C -86.243,-82.613 -45.771,-41.339 0,0"
             style="fill:#3a3a3c;fill-opacity:1;fill-rule:nonzero;stroke:none"
             id="path20" /></g><g
           id="g22"
           transform="translate(1026.198,822.9575)"><path
             d="m 0,0 c -546.599,-147.871 -828.981,-645.916 -828.981,-645.916 126.551,151.776 254.052,271.362 369.867,364.265 l 49.956,-94.622 -78.651,43.787 c -11.386,-9.537 -22.853,-19.313 -34.414,-29.362 l 148.118,-82.463 h 0.867 61.032 l -104.609,195.834 C -178.816,-66.106 0,0 0,0"
             style="fill:#72b806;fill-opacity:1;fill-rule:nonzero;stroke:none"
             id="path24" /></g></g></g></g></svg>
