<?xml version="1.0" encoding="UTF-8" standalone="no"?>
<!-- Created with Inkscape (http://www.inkscape.org/) -->

<svg
   version="1.1"
   id="svg2"
   xml:space="preserve"
   width="1105.308"
   height="861.22131"
   viewBox="0 0 1105.308 861.22134"
   sodipodi:docname="AGREATblue.svg"
   inkscape:version="1.2.1 (9c6d41e4, 2022-07-14)"
   xmlns:inkscape="http://www.inkscape.org/namespaces/inkscape"
   xmlns:sodipodi="http://sodipodi.sourceforge.net/DTD/sodipodi-0.dtd"
   xmlns="http://www.w3.org/2000/svg"
   xmlns:svg="http://www.w3.org/2000/svg"><defs
     id="defs6"><clipPath
       clipPathUnits="userSpaceOnUse"
       id="clipPath16"><path
         d="M 0,1000 H 1200 V 0 H 0 Z"
         id="path14" /></clipPath></defs><sodipodi:namedview
     id="namedview4"
     pagecolor="#ffffff"
     bordercolor="#666666"
     borderopacity="1.0"
     inkscape:pageshadow="2"
     inkscape:pageopacity="0.0"
     inkscape:pagecheckerboard="0"
     inkscape:showpageshadow="2"
     inkscape:deskcolor="#d1d1d1"
     showgrid="false"
     inkscape:zoom="0.17700001"
     inkscape:cx="556.49714"
     inkscape:cy="451.97737"
     inkscape:window-width="1763"
     inkscape:window-height="868"
     inkscape:window-x="0"
     inkscape:window-y="25"
     inkscape:window-maximized="0"
     inkscape:current-layer="g8" /><g
     id="g8"
     inkscape:groupmode="layer"
     inkscape:label="AGREAT FINAL ICON-04"
     transform="matrix(1.3333333,0,0,-1.3333333,-262.95626,1097.2766)"><g
       id="g10"><g
         id="g12"
         clip-path="url(#clipPath16)"><g
           id="g18"
           transform="translate(469.9199,533.0889)"><path
             d="M 0,0 50.597,96.422 70.014,59.644 c 13.703,11.002 27.749,21.934 42.214,32.734 l -35.3,66.083 c -2.932,5.691 -6.323,10.188 -10.174,13.487 -3.856,3.293 -8.576,4.948 -14.159,4.948 -5.584,0 -10.373,-1.655 -14.364,-4.948 -3.986,-3.299 -7.447,-7.796 -10.369,-13.487 L -121.349,-121.531 C -86.243,-82.613 -45.771,-41.339 0,0"
             style="fill:#3a3a3c;fill-opacity:1;fill-rule:nonzero;stroke:none"
             id="path20" /></g><g
           id="g22"
           transform="translate(1026.1982,822.9575)"><path
             d="m 0,0 c -546.6,-147.871 -828.981,-645.916 -828.981,-645.916 126.55,151.776 254.051,271.362 369.867,364.265 l 49.955,-94.622 -78.651,43.787 c -11.385,-9.537 -22.853,-19.313 -34.413,-29.362 l 148.117,-82.463 h 0.868 61.032 l -104.609,195.834 C -178.816,-66.106 0,0 0,0"
             style="fill:#00bcf2;fill-opacity:1;fill-rule:nonzero;stroke:none"
             id="path24" /></g></g></g></g></svg>
